{"title":"Welcome to the Punch 2013 NL","uid":8375966,"size":348535888,"categoryP":"video","categoryS":"handheld","magnet":"?xt=urn:btih:47e60ef343ab1e02b588ecb1b18e998225a8a9d9&amp;dn=Welcome+to+the+Punch+2013+NL&amp;tr=udp%3A%2F%2Ftracker.openbittorrent.com%3A80&amp;tr=udp%3A%2F%2Fopen.demonii.com%3A1337&amp;tr=udp%3A%2F%2Ftracker.coppersurfer.tk%3A6969&amp;tr=udp%3A%2F%2Fexodus.desync.com%3A6969","seeders":0,"leechers":0,"uploader":"facemovies","files":-1,"time":1366050366,"description":"Format                         : Flash Video\nFile size                      : 332 MiB\nDuration                       : 1h 39mn\nOverall bit rate               : 466 Kbps\nhttphostheader                 : r15---sn-h557snel.googlevideo.com\n\nVideo\nFormat                         : AVC\nFormat/Info                    : Advanced Video Codec\nFormat profile                 : &lt;a class=&quot;__cf_email__&quot; href=&quot;/cdn-cgi/l/email-protection&quot; data-cfemail=&quot;7b361a12153b3748554b&quot;&gt;[email&amp;#160;protected]&lt;/a&gt;&lt;script cf-hash='f9e31' type=&quot;text/javascript&quot;&gt;\n/* &lt;![CDATA[ */!function(){try{var t=&quot;currentScript&quot;in document?document.currentScript:function(){for(var t=document.getElementsByTagName(&quot;script&quot;),e=t.length;e--;)if(t[e].getAttribute(&quot;cf-hash&quot;))return t[e]}();if(t&amp;&amp;t.previousSibling){var e,r,n,i,c=t.previousSibling,a=c.getAttribute(&quot;data-cfemail&quot;);if(a){for(e=&quot;&quot;,r=parseInt(a.substr(0,2),16),n=2;a.length-n;n+=2)i=parseInt(a.substr(n,2),16)^r,e+=String.fromCharCode(i);e=document.createTextNode(e),c.parentNode.replaceChild(e,c)}}}catch(u){}}();/* ]]&gt; */&lt;/script&gt;\nFormat settings, CABAC         : Yes\nFormat settings, ReFrames      : 3 frames\nFormat settings, GOP           : M=1, N=60\nCodec ID                       : 7\nDuration                       : 1h 39mn\nBit rate                       : 328 Kbps\nWidth                          : 634 pixels\nHeight                         : 360 pixels\nDisplay aspect ratio           : 16:9\nFrame rate mode                : Constant\nFrame rate                     : 29.970 fps\nColor space                    : YUV\nChroma subsampling             : 4:2:0\nBit depth                      : 8 bits\nScan type                      : Progressive\nBits/(Pixel*Frame)             : 0.048\nStream size                    : 234 MiB (70%)\n\nAudio\nFormat                         : AAC\nFormat/Info                    : Advanced Audio Codec\nFormat profile                 : LC\nCodec ID                       : 10\nDuration                       : 1h 39mn\nBit rate                       : 129 Kbps\nChannel(s)                     : 2 channels\nChannel positions              : Front: L R\nSampling rate                  : 44.1 KHz\nCompression mode               : Lossy\nStream size                    : 91.8 MiB (28%)\n","torrent":{"xt":"urn:btih:47e60ef343ab1e02b588ecb1b18e998225a8a9d9","amp;dn":"Welcome+to+the+Punch+2013+NL","amp;tr":["udp%3A%2F%2Ftracker.openbittorrent.com%3A80","udp%3A%2F%2Fopen.demonii.com%3A1337","udp%3A%2F%2Ftracker.coppersurfer.tk%3A6969","udp%3A%2F%2Fexodus.desync.com%3A6969"],"infoHash":"47e60ef343ab1e02b588ecb1b18e998225a8a9d9","infoHashBuffer":{"type":"Buffer","data":[71,230,14,243,67,171,30,2,181,136,236,177,177,142,153,130,37,168,169,217]},"announce":[],"urlList":[]}}